Coordinates
nRows=14
nColumns=24

# SIMM Motion File Header:
name Coordinates
datacolumns 24
datarows 14
otherdata 1
range 0.21332999999999999000 0.22633000000000000000
endheader
time	pelvis_tx	pelvis_ty	pelvis_tz	pelvis_tilt	pelvis_list	pelvis_rotation	hip_flexion_r	hip_adduction_r	hip_rotation_r	knee_angle_r	ankle_angle_r	subtalar_angle_r	mtp_angle_r	hip_flexion_l	hip_adduction_l	hip_rotation_l	knee_angle_l	ankle_angle_l	subtalar_angle_l	mtp_angle_l	lumbar_extension	lumbar_bending	lumbar_rotation
      0.21332999999999999000	      0.11899009087754939000	      0.88333326898796838000	     -0.23328515346902337000	      4.39255357668002850000	     -4.19114873861074870000	      4.63672337126934230000	     12.02292070732368700000	      6.12753418869115050000	      4.47243523237460130000	    -21.51776798494042000000	      7.01184796294054460000	      0.00000000000000415151	     -0.00000000000000364532	      6.50948619005213210000	    -11.76974903223351100000	      2.76609748151850750000	    -64.34117455741243000000	     -0.19403514043535186000	     -0.00000000000000040472	     -0.00000000000000125334	    -16.49473018058668900000	      7.10254467320795780000	      3.55475697426141530000
      0.21432999999999999000	      0.12005911681598989000	      0.88358829712927778000	     -0.23314084002132476000	      4.39031968507368830000	     -4.19438451987733000000	      4.59871928325707200000	     11.90453455424499700000	      6.14734895815903480000	      4.47323805421355040000	    -21.44405665752170600000	      7.04697511965366630000	      0.00000000000000416970	     -0.00000000000000382613	      6.66023027036655610000	    -11.74935940150575500000	      2.83823253651488770000	    -64.35330839529694900000	     -0.05639347333520450300	     -0.00000000000000040692	     -0.00000000000000131199	    -16.51218182788555600000	      7.07404730293330440000	      3.62419532604925500000
      0.21532999999999999000	      0.12112845699498617000	      0.88384739076415719000	     -0.23299514901728052000	      4.39162883444034510000	     -4.19767049258334880000	      4.55913549896541870000	     11.78163297472651600000	      6.16748038074075660000	      4.47301825876148660000	    -21.36821023024804600000	      7.06847588990486650000	      0.00000000000000419895	     -0.00000000000000405661	      6.80543933949054750000	    -11.72994214229900200000	      2.90704752145047560000	    -64.35978786997684200000	      0.06641445291288676500	     -0.00000000000000040529	     -0.00000000000000138316	    -16.53380506439421500000	      7.04546302609451840000	      3.69509632720723720000
      0.21632999999999999000	      0.12219822152752995000	      0.88411197560820254000	     -0.23284759470022451000	      4.39772727150292560000	     -4.20102311661824410000	      4.51741367178211380000	     11.65262674835316400000	      6.18803784948876870000	      4.47141256360132560000	    -21.28947495357647000000	      7.07154482741896210000	      0.00000000000000424313	     -0.00000000000000435473	      6.94316386935623160000	    -11.71183915540450800000	      2.97136778354482580000	    -64.35861282025658200000	      0.16915261145586610000	     -0.00000000000000039842	     -0.00000000000000147122	    -16.56106728331500500000	      7.01675932496512540000	      3.76797486873901640000
      0.21733000000000000000	      0.12326798606007373000	      0.88437656045224788000	     -0.23270004038316852000	      4.40382570856550610000	     -4.20437574065313950000	      4.47569184459880900000	     11.52362052197981200000	      6.20859531823678080000	      4.46980686844116540000	    -21.21073967690489000000	      7.07461376493305760000	      0.00000000000000428731	     -0.00000000000000465285	      7.08088839922191580000	    -11.69373616851001600000	      3.03568804563917640000	    -64.35743777053630800000	      0.27189076999884543000	     -0.00000000000000039155	     -0.00000000000000155928	    -16.58832950223579400000	      6.98805562383573250000	      3.84085341027079610000
      0.21833000000000000000	      0.12433785638048206000	      0.88464395523625128000	     -0.23255000843598186000	      4.41416431896686310000	     -4.20738095143185650000	      4.43064275808781270000	     11.38911868535381800000	      6.22896813713027960000	      4.46569889563747950000	    -21.12924618473919800000	      7.06142520163667430000	      0.00000000000000432657	     -0.00000000000000495589	      7.21067914644451150000	    -11.67688563646837400000	      3.09267758561933800000	    -64.34454555395947800000	      0.35335838808933551000	     -0.00000000000000039827	     -0.00000000000000161185	    -16.62066073738879300000	      6.95849906629638590000	      3.91597411685769630000
      0.21933000000000000000	      0.12540773560935423000	      0.88491158664709824000	     -0.23239976784597510000	      4.42485999708066750000	     -4.21035690631777280000	      4.38531348093791000000	     11.25415405986882400000	      6.24932540654127330000	      4.46138020443086520000	    -21.04752042148026800000	      7.04686758378503430000	      0.00000000000000436542	     -0.00000000000000525934	      7.33980178474959640000	    -11.66014057445201900000	      3.14904980079535250000	    -64.33066662725745700000	      0.43303480034574787000	     -0.00000000000000040615	     -0.00000000000000166143	    -16.65341883764512300000	      6.92887068917255090000	      3.99128363759986770000
      0.22033000000000000000	      0.12647727772721287000	      0.88517665572082449000	     -0.23224900034240978000	      4.43510839557370670000	     -4.21293952191180220000	      4.33888978290822000000	     11.11976482074881800000	      6.26915861748267570000	      4.45610259125228760000	    -20.96622293413394200000	      7.03713958275846000000	      0.00000000000000440365	     -0.00000000000000555066	      7.46842609403317240000	    -11.64332546755182900000	      3.20276297335052850000	    -64.31310885189158500000	      0.51377288051273506000	     -0.00000000000000042894	     -0.00000000000000167553	    -16.68573177324311600000	      6.89858469857969410000	      4.06684170609484500000
      0.22133000000000000000	      0.12754635873901901000	      0.88543821998720940000	     -0.23209751211771312000	      4.44474499756039430000	     -4.21498412147868700000	      4.29096911779206370000	     10.98616260467113100000	      6.28827501253099010000	      4.44951334864756380000	    -20.88551124970579300000	      7.03401761197206540000	      0.00000000000000444105	     -0.00000000000000582539	      7.59636878059078850000	    -11.62641455209425000000	      3.25283906317234490000	    -64.29051908612093800000	      0.59596312771001092000	     -0.00000000000000047216	     -0.00000000000000164110	    -16.71743580521555500000	      6.86739921334366790000	      4.14273974234102040000
      0.22233000000000000000	      0.12861543975082512000	      0.88569978425359441000	     -0.23194602389301647000	      4.45438159954708100000	     -4.21702872104557080000	      4.24304845267590740000	     10.85256038859344400000	      6.30739140757930360000	      4.44292410604283900000	    -20.80479956527764400000	      7.03089564118567000000	      0.00000000000000447845	     -0.00000000000000610011	      7.72431146714840540000	    -11.60950363663667100000	      3.30291515299416140000	    -64.26792932035027700000	      0.67815337490728678000	     -0.00000000000000051537	     -0.00000000000000160667	    -16.74913983718799300000	      6.83621372810764250000	      4.21863777858719580000
      0.22333000000000000000	      0.12968322017425496000	      0.88595108361206298000	     -0.23179463129666594000	      4.46015412290780060000	     -4.21795072050758880000	      4.19370600245298060000	     10.72399665765203400000	      6.32485630058668140000	      4.43457034421152760000	    -20.72721968986081700000	      7.05510347445058010000	      0.00000000000000452315	     -0.00000000000000639078	      7.85529995193440020000	    -11.59156719944843800000	      3.34873441249749120000	    -64.24035886672307100000	      0.77849172088495389000	     -0.00000000000000054089	     -0.00000000000000162935	    -16.77651701157946100000	      6.80345531803757900000	      4.29381060203683610000
      0.22433000000000000000	      0.13075089107430465000	      0.88620151855606166000	     -0.23164324675323972000	      4.46560124973270420000	     -4.21877818509581370000	      4.14424382279564090000	     10.59585722077081200000	      6.34218211954949850000	      4.42606799108607160000	    -20.64990354608658100000	      7.08161276801783760000	      0.00000000000000456845	     -0.00000000000000668278	      7.98654492533986820000	    -11.57354440241847900000	      3.39419520159344310000	    -64.21236898618161600000	      0.88035832988374463000	     -0.00000000000000056492	     -0.00000000000000165683	    -16.80352981852292900000	      6.77056445095987150000	      4.36892235485242250000
      0.22533000000000000000	      0.13181715210071207000	      0.88644202616933310000	     -0.23149288229980219000	      4.46710534842314380000	     -4.21866878780683410000	      4.09427786159629650000	     10.47284923390875600000	      6.35799047063717990000	      4.41593522226545690000	    -20.57552376907908700000	      7.13285831157733430000	      0.00000000000000462462	     -0.00000000000000697091	      8.12169203023492340000	    -11.55445491554454300000	      3.43699832654627800000	    -64.18151517604026400000	      1.00185447879729410000	     -0.00000000000000057241	     -0.00000000000000178268	    -16.82608285594395500000	      6.73658578837563750000	      4.44271543730882530000
      0.22633000000000000000	      0.13288294316923877000	      0.88667922467236193000	     -0.23134285787636091000	      4.46729510440209590000	     -4.21824710322545290000	      4.04414397321628450000	     10.35155173038642200000	      6.37329299909981730000	      4.40525898154645560000	    -20.50212278099384400000	      7.19234927180090900000	      0.00000000000000468442	     -0.00000000000000725775	      8.25813984562650560000	    -11.53500986538928100000	      3.47891556345140750000	    -64.14970672269892300000	      1.12989380768242850000	     -0.00000000000000057439	     -0.00000000000000194132	    -16.84714930352416900000	      6.70224452728922770000	      4.51606896297883510000
